<?xml version="1.0" encoding="UTF-8"?>
<!DOCTYPE svg PUBLIC "-//W3C//DTD SVG 1.1//EN" "http://www.w3.org/Graphics/SVG/1.1/DTD/svg11.dtd">
<!-- Creator: CorelDRAW 2021 (64-Bit) -->
<svg xmlns="http://www.w3.org/2000/svg" xml:space="preserve" width="10mm" height="10mm" version="1.1" style="shape-rendering:geometricPrecision; text-rendering:geometricPrecision; image-rendering:optimizeQuality; fill-rule:evenodd; clip-rule:evenodd"
viewBox="0 0 1000 1000"
 xmlns:xlink="http://www.w3.org/1999/xlink"
 xmlns:xodm="http://www.corel.com/coreldraw/odm/2003">
 <defs>
  <style type="text/css">
   <![CDATA[
    .str0 {stroke:#373435;stroke-width:17.64;stroke-linecap:round;stroke-linejoin:round;stroke-miterlimit:22.9256}
    .fil0 {fill:none}
   ]]>
  </style>
 </defs>
 <g id="Layer_x0020_1">
  <metadata id="CorelCorpID_0Corel-Layer"/>
  <path class="fil0 str0" d="M822 788.35l0 -0.04c0,-170.28 -138.61,-309.6 -308.02,-309.6l-43.96 0c-169.41,0 -308.02,139.32 -308.02,309.6l0 0.04m227.98 59.99c-132.32,-7.16 -227.98,-27.9 -227.98,-52.35 0,-30.4 147.74,-55.04 330,-55.04 182.26,0 330,24.64 330,55.04 0,23.95 -91.76,44.34 -219.86,51.89m31.3 -101.64c0.39,4.24 0.59,8.55 0.59,12.9 0,76.69 -61.86,138.86 -138.17,138.86 -76.3,0 -138.16,-62.17 -138.16,-138.86 0,-4.56 0.23,-9.05 0.65,-13.48m260.52 -248.36l0 -60.07c0,-54.93 -44.71,-99.87 -99.36,-99.87l-55.45 0c-54.65,0 -99.36,44.94 -99.36,99.87l0 60.23m127.09 -160.1l0 -219.36"/>
 </g>
</svg>
